<svg id="Layer_1" viewBox="0 0 24 24" xmlns="http://www.w3.org/2000/svg" data-name="Layer 1"><path d="m22.404 14.779c-.235.98-.455 1.543-.475 1.593-.109.273-.333.484-.612.577-.118.039-2.721.883-7.817 1.028v2.023h2.001c.829 0 1.5.672 1.5 1.5s-.671 1.5-1.5 1.5h-7c-.829 0-1.5-.672-1.5-1.5s.671-1.5 1.5-1.5h2v-2.027c-1.971-.057-3.585-.213-4.808-.392.513-.575 1.026-1.126 1.531-1.619 3.711-3.62 6.98-5.2 9.175-5.888 3.564 2.003 5.959 4.669 6.006 4.704zm.596-5.279c0 1.069-.069 2.035-.171 2.884-2.558-2.545-4.716-3.674-5.695-4.182-.271-.165-.595-.26-.907-.164-2.41.685-6.171 2.367-10.401 6.492-.783.785-1.64 1.652-2.4 2.622-.456-.111-.707-.192-.742-.204-.279-.093-.503-.304-.612-.577-.043-.109-1.071-2.727-1.071-6.871s1.027-6.762 1.07-6.871c.109-.273.333-.484.612-.577.129-.043 3.224-1.052 9.316-1.052s9.188 1.009 9.316 1.052c.279.093.503.304.612.577.043.109 1.071 2.727 1.071 6.871zm-13-2.5c0-1.99-1.009-3-3-3s-3 1.01-3 3 1.009 3 3 3 3-1.01 3-3zm-3-1c-.878 0-1 .121-1 1s.122 1 1 1 1-.121 1-1-.122-1-1-1z"/></svg>