<svg id="Layer_1" viewBox="0 0 24 24" xmlns="http://www.w3.org/2000/svg" data-name="Layer 1"><path d="m18.456 23.984-.41-.209c-3.293-1.681-4.991-3.816-5.046-6.348v-3.933c0-.862.551-1.624 1.37-1.896l4.13-1.37 4.13 1.37c.818.27 1.37 1.031 1.37 1.896v3.911c-.058 2.881-1.779 5.028-5.118 6.403l-.426.175zm-7.424-5.984h-7.032v-2h6.999v-2h-6.999v-2h7.301c.341-.844.958-1.554 1.769-2h-9.07v-2h10v1.615l4-1.327v-6.288h-5.171c-.413-1.164-1.525-2-2.829-2h-2c-1.304 0-2.416.836-2.829 2h-5.171v19c0 1.654 1.346 3 3 3h11.648c-2.613-2.014-3.453-4.232-3.616-6z"/></svg>